<svg width="19" height="17" viewBox="0 0 19 17" fill="none" xmlns="http://www.w3.org/2000/svg">
<path d="M9.91667 4.08333L8.98705 2.2241C8.7195 1.689 8.58572 1.42144 8.38614 1.22597C8.20965 1.05311 7.99694 0.921645 7.7634 0.841091C7.4993 0.75 7.20017 0.75 6.60191 0.75H3.41667C2.48325 0.75 2.01654 0.75 1.66002 0.931656C1.34641 1.09144 1.09144 1.34641 0.931656 1.66002C0.75 2.01654 0.75 2.48325 0.75 3.41667V4.08333M0.75 4.08333H13.4167C14.8168 4.08333 15.5169 4.08333 16.0516 4.35582C16.522 4.5955 16.9045 4.97795 17.1442 5.44836C17.4167 5.98314 17.4167 6.6832 17.4167 8.08333V11.75C17.4167 13.1501 17.4167 13.8502 17.1442 14.385C16.9045 14.8554 16.522 15.2378 16.0516 15.4775C15.5169 15.75 14.8168 15.75 13.4167 15.75H4.75C3.34987 15.75 2.6498 15.75 2.11502 15.4775C1.64462 15.2378 1.26217 14.8554 1.02248 14.385C0.75 13.8502 0.75 13.1501 0.75 11.75V4.08333Z" stroke="black" stroke-opacity="0.6" stroke-width="1.5" stroke-linecap="round" stroke-linejoin="round"/>
</svg>
